<svg width="331" height="362" viewBox="0 0 331 362" fill="none" xmlns="http://www.w3.org/2000/svg">
<rect x="7" y="7" width="317" height="348" stroke="#4E342E" stroke-width="14"/>
<path d="M96 57.7421H168.388V111.749H127.858V160.965H161.308V208.439H127.858V306H96V57.7421Z" fill="#4E342E"/>
<path d="M271 306H237.549L231.532 243.282C231.296 240.959 230.883 237.04 230.293 231.523C229.821 225.715 229.231 221.505 228.523 218.892C227.815 215.988 226.812 214.101 225.514 213.23C222.211 213.52 217.373 213.666 211.001 213.666V306H179.144V59.9199C193.421 57.3066 206.754 56 219.143 56C230.352 56 239.437 58.3229 246.399 62.9686C253.36 67.324 258.552 75.0186 261.974 86.0523C265.513 96.7956 267.283 111.604 267.283 130.477C267.283 148.189 265.631 162.127 262.328 172.289C259.024 182.161 253.714 188.114 246.399 190.146V192.76C250.529 193.631 253.95 196.97 256.664 202.777C259.496 208.294 261.384 215.408 262.328 224.118L271 306ZM211.001 164.449C212.063 164.74 214.128 164.885 217.196 164.885C226.281 164.885 231.591 162.998 233.125 159.223C234.541 155.739 235.249 147.609 235.249 134.833C235.249 122.928 233.951 114.798 231.355 110.442C228.877 106.087 224.747 103.909 218.966 103.909C217.668 103.909 215.013 104.2 211.001 104.78V164.449Z" fill="#4E342E"/>
<path d="M84.6195 70.7332C84.6082 73.5412 84.3385 75.9148 83.8107 77.854C83.2828 79.7932 82.2713 81.3318 80.776 82.4697C79.3152 83.6425 77.2155 84.2233 74.4769 84.2122C73.2635 84.2073 72.0163 84.0116 70.7352 83.6251C69.4886 83.2734 68.3985 82.8183 67.4647 82.2598C66.5308 81.736 65.9261 81.2656 65.6504 80.8485C65.3057 80.3617 65.0327 79.2859 64.8315 77.6211C64.6649 75.9564 64.5862 73.9974 64.5953 71.7441C64.5985 70.9468 64.6382 69.7163 64.7142 68.0526L54.8343 68.0125L54.8722 58.6526L84.512 58.7727C84.6012 62.4131 84.6371 66.3999 84.6195 70.7332ZM71.2398 74.579C71.6891 74.9275 72.5897 75.1045 73.9417 75.11C75.7097 75.1171 76.9592 74.7409 77.6903 73.9812C78.4213 73.2561 78.7905 71.9749 78.7979 70.1376C78.8004 69.5136 78.7512 68.8374 78.6501 68.109L70.7462 68.077C70.7101 68.4235 70.69 69.0994 70.686 70.1048C70.6752 72.7741 70.8598 74.2655 71.2398 74.579ZM54.0211 101.899C54.042 96.7332 55.271 92.8555 57.7082 90.2653C60.1799 87.71 64.1197 86.4433 69.5277 86.4652C74.8317 86.4867 78.6912 87.9236 81.1063 90.7761C83.5215 93.6286 84.7196 97.3948 84.7006 102.075C84.6607 111.92 79.7355 116.823 69.9249 116.783C64.9676 116.763 61.0726 115.534 58.2398 113.096C55.4068 110.692 54.0006 106.96 54.0211 101.899ZM60.1579 101.715C60.1539 102.686 60.3066 103.501 60.616 104.161C60.96 104.821 61.5472 105.344 62.3776 105.728C63.796 106.462 66.1172 106.836 69.3411 106.849C72.4958 106.861 74.7852 106.507 76.2095 105.784C77.6685 105.062 78.4365 103.731 78.5137 101.79C78.5167 101.062 78.4331 100.299 78.263 99.5007C78.1274 98.7374 77.9214 98.2513 77.6449 98.0421C77.1612 97.6242 76.1226 97.2906 74.5289 97.0415C72.9698 96.8272 71.2542 96.7162 69.3822 96.7087C66.4702 96.6969 64.3371 96.9656 62.9829 97.5148C61.976 97.892 61.2459 98.4264 60.7924 99.1179C60.3736 99.8095 60.1621 100.675 60.1579 101.715ZM54.511 147.847L54.5508 138.019L62.0459 136.281C62.3235 136.213 62.792 136.094 63.4514 135.923C64.1452 135.787 64.6486 135.616 64.9614 135.409C65.309 135.203 65.5355 134.909 65.641 134.528C65.6103 133.557 65.5987 132.136 65.6063 130.264L54.5824 130.219L54.6203 120.859L84 120.978C84.2951 125.174 84.4352 129.092 84.4204 132.732C84.4071 136.025 84.119 138.693 83.556 140.736C83.0277 142.78 82.1029 144.301 80.7815 145.301C79.4946 146.336 77.7246 146.849 75.4712 146.84C73.3566 146.831 71.6946 146.339 70.4852 145.364C69.3105 144.388 68.6061 142.825 68.3722 140.675L68.0602 140.674C67.9512 141.887 67.5485 142.89 66.8519 143.685C66.1899 144.514 65.3383 145.065 64.2972 145.339L54.511 147.847ZM71.4822 130.288C71.4463 130.599 71.4265 131.206 71.4229 132.107C71.4121 134.777 71.6311 136.337 72.0799 136.79C72.4942 137.208 73.464 137.42 74.9894 137.426C76.4107 137.432 77.3829 137.054 77.906 136.294C78.4289 135.568 78.6938 134.355 78.7007 132.657C78.7023 132.275 78.6707 131.495 78.6062 130.316L71.4822 130.288ZM54.4352 166.571L54.4731 157.211L77.6129 157.305L77.6468 148.933L84.1467 148.959L84.041 175.063L77.5411 175.036L77.575 166.665L54.4352 166.571ZM84.0293 177.953L83.9432 199.221L77.4952 199.195L77.5435 187.287L71.6675 187.263L71.6277 197.091L65.9598 197.068L65.9996 187.24L54.3516 187.193L54.3896 177.833L84.0293 177.953ZM53.5561 216.714C53.577 211.549 54.8061 207.671 57.2432 205.081C59.7149 202.525 63.6548 201.259 69.0627 201.281C74.3667 201.302 78.2262 202.739 80.6414 205.592C83.0565 208.444 84.2546 212.21 84.2356 216.89C84.1958 226.735 79.2705 231.638 69.4599 231.598C64.5026 231.578 60.6076 230.349 57.7748 227.911C54.9418 225.508 53.5356 221.775 53.5561 216.714ZM59.6929 216.531C59.6889 217.501 59.8416 218.317 60.151 218.977C60.495 219.637 61.0822 220.159 61.9126 220.544C63.331 221.278 65.6522 221.651 68.8762 221.664C72.0308 221.677 74.3203 221.322 75.7445 220.6C77.2035 219.878 77.9715 218.546 78.0487 216.605C78.0517 215.877 77.9681 215.114 77.798 214.316C77.6624 213.553 77.4564 213.067 77.1799 212.858C76.6963 212.44 75.6576 212.106 74.0639 211.857C72.5048 211.643 70.7892 211.532 68.9172 211.524C66.0053 211.512 63.8721 211.781 62.5179 212.33C61.511 212.707 60.7809 213.242 60.3274 213.933C59.9086 214.625 59.6971 215.491 59.6929 216.531ZM83.7955 235.691L83.7576 245.051L60.9818 244.958L60.9327 257.074L54.0688 257.046L54.1557 235.571L83.7955 235.691ZM83.6947 260.577L83.6568 269.937L54.017 269.817L54.0549 260.457L83.6947 260.577ZM53.2612 289.534C53.2821 284.368 54.5111 280.491 56.9483 277.901C59.42 275.345 63.3599 274.078 68.7678 274.1C74.0718 274.122 77.9313 275.559 80.3464 278.411C82.7616 281.264 83.9597 285.03 83.9407 289.71C83.9008 299.555 78.9756 304.458 69.165 304.418C64.2077 304.398 60.3127 303.169 57.4799 300.731C54.6469 298.327 53.2407 294.595 53.2612 289.534ZM59.398 289.351C59.394 290.321 59.5467 291.136 59.8561 291.796C60.2001 292.456 60.7873 292.979 61.6177 293.364C63.0361 294.097 65.3573 294.471 68.5813 294.484C71.7359 294.497 74.0254 294.142 75.4496 293.42C76.9086 292.697 77.6766 291.366 77.7538 289.425C77.7568 288.697 77.6732 287.934 77.5031 287.136C77.3675 286.373 77.1615 285.886 76.885 285.677C76.4013 285.259 75.3627 284.926 73.769 284.677C72.2099 284.462 70.4943 284.351 68.6223 284.344C65.7103 284.332 63.5772 284.601 62.223 285.15C61.2161 285.527 60.486 286.062 60.0325 286.753C59.6137 287.445 59.4022 288.311 59.398 289.351Z" fill="#4E342E"/>
</svg>
