<svg width="1214" height="159" viewBox="0 0 1214 159" fill="none" xmlns="http://www.w3.org/2000/svg">
<path d="M0 1.88643H49.0884V35.3034H21.6037V65.7559H44.2876V95.1305H21.6037V155.497H0V1.88643Z" fill="#4E342E"/>
<path d="M118.673 155.497H95.9893L91.9086 116.69C91.7486 115.253 91.4685 112.827 91.0684 109.414C90.7484 105.82 90.3483 103.215 89.8682 101.598C89.3882 99.8017 88.708 98.6339 87.8279 98.0949C85.5875 98.2746 82.3069 98.3644 77.9862 98.3644V155.497H56.3825V3.2339C66.0642 1.61696 75.1057 0.80848 83.5071 0.80848C91.1085 0.80848 97.2695 2.24577 101.99 5.12034C106.711 7.81525 110.232 12.5763 112.552 19.4034C114.953 26.0508 116.153 35.2136 116.153 46.8915C116.153 57.8508 115.033 66.4746 112.792 72.7627C110.552 78.8712 106.951 82.5542 101.99 83.8119V85.4288C104.791 85.9678 107.111 88.0339 108.952 91.6271C110.872 95.0407 112.152 99.4424 112.792 104.832L118.673 155.497ZM77.9862 67.9119C78.7063 68.0915 80.1066 68.1814 82.1869 68.1814C88.348 68.1814 91.9486 67.0136 92.9888 64.678C93.9489 62.522 94.429 57.4915 94.429 49.5864C94.429 42.2203 93.5489 37.1898 91.7886 34.4949C90.1083 31.8 87.3078 30.4525 83.3871 30.4525C82.507 30.4525 80.7067 30.6322 77.9862 30.9915V67.9119Z" fill="#4E342E"/>
<path d="M125.404 1.88643H175.212V34.2254H147.007V62.2525H170.771V91.3576H147.007V122.619H175.092V155.497H125.404V1.88643Z" fill="#4E342E"/>
<path d="M208.377 1.88643C217.739 1.88643 225.38 3.8627 231.301 7.81525C237.302 11.7678 241.943 19.2237 245.224 30.183C248.584 41.1424 250.265 56.8627 250.265 77.3441C250.265 99.2627 248.504 115.971 244.984 127.469C241.463 138.788 236.742 146.334 230.821 150.107C224.9 153.7 217.419 155.497 208.377 155.497H184.373V1.88643H208.377ZM224.46 118.846C225.42 116.69 226.1 111.12 226.5 102.137C226.901 93.1542 227.101 84.8898 227.101 77.3441C227.101 67.822 226.78 60.2763 226.14 54.7068C225.58 48.9576 224.54 44.3763 223.02 40.9627C220.619 35.0339 216.499 32.0695 210.658 32.0695C209.618 32.0695 208.057 32.2491 205.977 32.6085V122.08C207.337 122.439 209.458 122.619 212.338 122.619C215.299 122.619 217.899 122.349 220.139 121.81C222.46 121.092 223.9 120.103 224.46 118.846Z" fill="#4E342E"/>
<path d="M259.255 1.88643H309.063V34.2254H280.859V62.2525H304.623V91.3576H280.859V122.619H308.943V155.497H259.255V1.88643Z" fill="#4E342E"/>
<path d="M380.515 155.497H357.831L353.75 116.69C353.59 115.253 353.31 112.827 352.91 109.414C352.59 105.82 352.19 103.215 351.71 101.598C351.23 99.8017 350.55 98.6339 349.67 98.0949C347.429 98.2746 344.149 98.3644 339.828 98.3644V155.497H318.224V3.2339C327.906 1.61696 336.948 0.80848 345.349 0.80848C352.95 0.80848 359.111 2.24577 363.832 5.12034C368.553 7.81525 372.074 12.5763 374.394 19.4034C376.794 26.0508 377.995 35.2136 377.995 46.8915C377.995 57.8508 376.874 66.4746 374.634 72.7627C372.394 78.8712 368.793 82.5542 363.832 83.8119V85.4288C366.633 85.9678 368.953 88.0339 370.793 91.6271C372.714 95.0407 373.994 99.4424 374.634 104.832L380.515 155.497ZM339.828 67.9119C340.548 68.0915 341.948 68.1814 344.029 68.1814C350.19 68.1814 353.79 67.0136 354.831 64.678C355.791 62.522 356.271 57.4915 356.271 49.5864C356.271 42.2203 355.391 37.1898 353.63 34.4949C351.95 31.8 349.15 30.4525 345.229 30.4525C344.349 30.4525 342.548 30.6322 339.828 30.9915V67.9119Z" fill="#4E342E"/>
<path d="M387.966 1.88643H409.569V155.497H387.966V1.88643Z" fill="#4E342E"/>
<path d="M485.57 155.497H461.926L448.603 98.0949C448.363 97.1966 447.723 94.6814 446.683 90.5491C445.723 86.4169 444.643 82.4644 443.442 78.6915V155.497H421.839V1.88643H443.442V71.6847C444.803 68.2712 445.963 64.5881 446.923 60.6356C447.963 56.5034 448.563 54.078 448.723 53.3593L461.565 1.88643H484.369L470.687 53.3593C470.447 54.078 469.927 55.9644 469.127 59.0186C468.327 62.0729 467.446 64.9475 466.486 67.6424C465.606 70.1576 464.646 72.4932 463.606 74.6492C465.046 77.7034 466.206 80.7576 467.086 83.8119C468.047 86.6864 469.127 90.5492 470.327 95.4L485.57 155.497Z" fill="#4E342E"/>
<path d="M554.722 155.497H531.078L517.756 98.0949C517.516 97.1966 516.876 94.6814 515.835 90.5491C514.875 86.4169 513.795 82.4644 512.595 78.6915V155.497H490.991V1.88643H512.595V71.6847C513.955 68.2712 515.115 64.5881 516.075 60.6356C517.116 56.5034 517.716 54.078 517.876 53.3593L530.718 1.88643H553.522L539.84 53.3593C539.599 54.078 539.079 55.9644 538.279 59.0186C537.479 62.0729 536.599 64.9475 535.639 67.6424C534.759 70.1576 533.798 72.4932 532.758 74.6492C534.199 77.7034 535.359 80.7576 536.239 83.8119C537.199 86.6864 538.279 90.5492 539.479 95.4L554.722 155.497Z" fill="#4E342E"/>
<path d="M559.424 1.88643H609.232V34.2254H581.027V62.2525H604.791V91.3576H581.027V122.619H609.112V155.497H559.424V1.88643Z" fill="#4E342E"/>
<path d="M698.734 155.497H676.05L671.969 116.69C671.809 115.253 671.529 112.827 671.129 109.414C670.809 105.82 670.409 103.215 669.929 101.598C669.449 99.8017 668.769 98.6339 667.888 98.0949C665.648 98.2746 662.367 98.3644 658.047 98.3644V155.497H636.443V3.2339C646.125 1.61696 655.166 0.80848 663.568 0.80848C671.169 0.80848 677.33 2.24577 682.051 5.12034C686.772 7.81525 690.292 12.5763 692.613 19.4034C695.013 26.0508 696.213 35.2136 696.213 46.8915C696.213 57.8508 695.093 66.4746 692.853 72.7627C690.612 78.8712 687.012 82.5542 682.051 83.8119V85.4288C684.851 85.9678 687.172 88.0339 689.012 91.6271C690.932 95.0407 692.213 99.4424 692.853 104.832L698.734 155.497ZM658.047 67.9119C658.767 68.0915 660.167 68.1814 662.247 68.1814C668.408 68.1814 672.009 67.0136 673.049 64.678C674.009 62.522 674.49 57.4915 674.49 49.5864C674.49 42.2203 673.609 37.1898 671.849 34.4949C670.169 31.8 667.368 30.4525 663.448 30.4525C662.567 30.4525 660.767 30.6322 658.047 30.9915V67.9119Z" fill="#4E342E"/>
<path d="M739.43 159C727.508 159 718.546 152.712 712.545 140.136C706.624 127.38 703.664 106.988 703.664 78.961C703.664 51.4729 706.944 31.4407 713.506 18.8644C720.067 6.28814 728.748 0 739.55 0C762.274 0 773.636 25.422 773.636 76.2661C773.636 101.958 770.835 122.169 765.234 136.902C759.714 151.634 751.112 159 739.43 159ZM738.95 127.2C741.19 127.2 743.071 126.392 744.591 124.775C746.111 122.978 747.311 119.924 748.192 115.612C749.872 108.246 750.712 96.2085 750.712 79.5C750.712 63.1508 749.872 51.2932 748.192 43.9271C746.511 36.3813 743.431 32.4288 738.95 32.0695C737.27 32.0695 735.509 32.5186 733.669 33.417C731.909 34.1356 730.789 35.2136 730.308 36.6508C729.348 39.1661 728.588 44.5559 728.028 52.8203C727.548 60.9051 727.308 69.7983 727.308 79.5C727.308 94.5915 727.948 105.641 729.228 112.647C730.108 117.858 731.349 121.631 732.949 123.966C734.549 126.122 736.55 127.2 738.95 127.2Z" fill="#4E342E"/>
<path d="M802.87 43.3881C802.87 47.161 803.71 50.1254 805.391 52.2814C807.151 54.4373 809.871 56.7729 813.552 59.2881C817.953 62.522 821.554 65.6661 824.354 68.7203C827.234 71.7746 829.715 76.5356 831.795 83.0034C833.956 89.4712 835.036 97.9153 835.036 108.336C835.036 141.753 825.354 158.461 805.991 158.461C802.79 158.461 798.87 157.832 794.229 156.575C789.668 155.317 785.507 153.7 781.747 151.724C781.907 147.951 782.227 142.471 782.707 135.285C783.267 127.919 783.787 122.439 784.267 118.846C787.068 119.744 791.268 120.822 796.869 122.08C802.55 123.337 806.831 123.966 809.711 123.966C811.392 123.966 812.392 123.697 812.712 123.158C813.192 122.439 813.552 121.271 813.792 119.654C814.112 117.858 814.272 116.331 814.272 115.073C814.272 111.48 813.512 108.785 811.992 106.988C810.472 105.012 807.871 102.676 804.19 99.9814C799.79 96.9271 796.149 93.783 793.269 90.5491C790.388 87.3152 787.868 82.2847 785.707 75.4576C783.547 68.6305 782.467 59.6475 782.467 48.5085C782.467 40.6034 783.267 32.878 784.867 25.3322C786.467 17.6068 788.108 12.3966 789.788 9.7017C791.068 7.72542 793.709 5.83898 797.709 4.04237C801.71 2.24576 805.471 1.34746 808.991 1.34746C817.953 1.34746 825.274 3.2339 830.955 7.00679C830.875 10.6 830.595 15.5407 830.115 21.8288C829.715 28.1169 829.275 33.8661 828.795 39.0763L826.034 38.8068C815.633 37.1898 808.991 36.3814 806.111 36.3814C804.911 36.3814 804.231 36.4712 804.07 36.6508C803.75 37.0102 803.47 37.8186 803.23 39.0763C802.99 40.3339 802.87 41.7712 802.87 43.3881Z" fill="#4E342E"/>
<path d="M844.355 1.88643H894.164V34.2254H865.959V62.2525H889.723V91.3576H865.959V122.619H894.044V155.497H844.355V1.88643Z" fill="#4E342E"/>
<path d="M923.368 93.5136V155.497H903.325V1.88643H923.608L941.731 63.8695C944.452 73.0322 946.532 80.7576 947.972 87.0458H948.332V1.88643H968.256V155.497H947.852L929.249 90.8186L923.848 72.4932H923.488L923.368 93.5136Z" fill="#4E342E"/>
<path d="M1024.5 74.3797C1029.94 75.8169 1033.82 79.9492 1036.15 86.7763C1038.47 93.4237 1039.63 101.508 1039.63 111.031C1039.63 116.959 1039.23 122.619 1038.43 128.008C1037.63 133.219 1036.67 137.71 1035.55 141.483C1034.43 145.076 1033.46 147.412 1032.66 148.49C1029.46 153.161 1019.7 155.497 1003.38 155.497H980.096V1.88643H1008.3C1014.7 1.88643 1019.86 2.69491 1023.78 4.31186C1027.78 5.74915 1031.02 9.16271 1033.5 14.5525C1035.99 19.7627 1037.23 27.7576 1037.23 38.5373C1037.23 47.8797 1036.19 55.4254 1034.1 61.1746C1032.1 66.9237 1028.9 70.8763 1024.5 73.0322V74.3797ZM1014.9 34.4949C1014.1 32.6983 1013.14 31.6203 1012.02 31.261C1010.98 30.722 1009.3 30.4525 1006.98 30.4525C1004.66 30.4525 1002.9 30.5424 1001.7 30.722V63.6H1002.9C1003.3 63.6 1004.98 63.6 1007.94 63.6C1010.9 63.6 1012.86 63.1508 1013.82 62.2525C1014.54 61.5339 1015.18 59.6475 1015.74 56.5932C1016.38 53.539 1016.7 50.2153 1016.7 46.622C1016.7 41.2322 1016.1 37.1898 1014.9 34.4949ZM1016.94 124.505C1017.5 123.427 1017.94 121.451 1018.26 118.576C1018.66 115.522 1018.86 112.468 1018.86 109.414C1018.86 105.641 1018.62 102.137 1018.14 98.9034C1017.74 95.4898 1017.18 93.0644 1016.46 91.6271C1015.74 90.0102 1014.7 88.9322 1013.34 88.3932C1012.06 87.8542 1009.86 87.5847 1006.74 87.5847C1004.74 87.5847 1003.06 87.6746 1001.7 87.8542V126.931C1005.46 127.11 1008.82 127.02 1011.78 126.661C1014.74 126.122 1016.46 125.403 1016.94 124.505Z" fill="#4E342E"/>
<path d="M1082.03 159C1070.11 159 1061.14 152.712 1055.14 140.136C1049.22 127.38 1046.26 106.988 1046.26 78.961C1046.26 51.4729 1049.54 31.4407 1056.1 18.8644C1062.66 6.28814 1071.35 0 1082.15 0C1104.87 0 1116.23 25.422 1116.23 76.2661C1116.23 101.958 1113.43 122.169 1107.83 136.902C1102.31 151.634 1093.71 159 1082.03 159ZM1081.55 127.2C1083.79 127.2 1085.67 126.392 1087.19 124.775C1088.71 122.978 1089.91 119.924 1090.79 115.612C1092.47 108.246 1093.31 96.2085 1093.31 79.5C1093.31 63.1508 1092.47 51.2932 1090.79 43.9271C1089.11 36.3813 1086.03 32.4288 1081.55 32.0695C1079.87 32.0695 1078.11 32.5186 1076.27 33.417C1074.51 34.1356 1073.39 35.2136 1072.91 36.6508C1071.95 39.1661 1071.19 44.5559 1070.63 52.8203C1070.15 60.9051 1069.91 69.7983 1069.91 79.5C1069.91 94.5915 1070.55 105.641 1071.83 112.647C1072.71 117.858 1073.95 121.631 1075.55 123.966C1077.15 126.122 1079.15 127.2 1081.55 127.2Z" fill="#4E342E"/>
<path d="M1214 155.497H1193.84L1192.28 70.8763C1192.04 54.1678 1191.76 41.5017 1191.44 32.878H1191.08C1190.12 39.7051 1189 50.3051 1187.72 64.678L1187.12 71.4153L1178.83 155.497H1158.67L1151.71 79.7695L1150.51 66.2949C1148.83 49.5864 1147.67 38.4475 1147.03 32.878H1146.67C1146.35 41.861 1146.07 56.5034 1145.83 76.8051C1145.75 78.0627 1145.71 80.039 1145.71 82.7339L1144.63 155.497H1124.34L1127.23 1.88643H1161.55L1167.43 68.1814L1168.87 85.9678C1169.51 80.3983 1170.11 74.2 1170.67 67.3729L1176.19 1.88643H1211.24L1214 155.497Z" fill="#4E342E"/>
</svg>
